<svg width="100" height="100" viewBox="0 0 100 100" fill="none" xmlns="http://www.w3.org/2000/svg">
    <g clip-path="url(#clip0_1399_2)">
        <rect width="100" height="100" rx="20" fill="white"/>
        <rect width="100" height="100" fill="white"/>
        <path d="M50.093 73.246C47.423 73.246 44.7827 72.89 42.172 72.178C39.6207 71.466 37.2177 70.5167 34.963 69.33C32.7677 68.084 30.8987 66.66 29.356 65.058L37.811 56.425C39.235 57.9083 40.926 59.0653 42.884 59.896C44.9013 60.7267 47.0373 61.142 49.292 61.142C50.5973 61.142 51.5763 60.964 52.229 60.608C52.941 60.252 53.297 59.7477 53.297 59.095C53.297 58.1457 52.7927 57.4337 51.784 56.959C50.8347 56.425 49.559 55.98 47.957 55.624C46.4143 55.2087 44.7827 54.734 43.062 54.2C41.3413 53.6067 39.68 52.8353 38.078 51.886C36.476 50.9367 35.1707 49.6017 34.162 47.881C33.2127 46.1603 32.738 43.965 32.738 41.295C32.738 38.5063 33.4797 36.0737 34.963 33.997C36.5057 31.861 38.6417 30.1997 41.371 29.013C44.1003 27.767 47.3043 27.144 50.983 27.144C54.721 27.144 58.281 27.7967 61.663 29.102C65.045 30.348 67.7743 32.2467 69.851 34.798L61.307 43.431C59.883 41.829 58.3107 40.7313 56.59 40.138C54.8693 39.4853 53.297 39.159 51.873 39.159C50.5083 39.159 49.5293 39.3667 48.936 39.782C48.3427 40.138 48.046 40.6423 48.046 41.295C48.046 42.0663 48.5207 42.6893 49.47 43.164C50.4787 43.6387 51.7543 44.0837 53.297 44.499C54.899 44.855 56.5307 45.3297 58.192 45.923C59.9127 46.5163 61.5443 47.347 63.087 48.415C64.689 49.4237 65.9647 50.7883 66.914 52.509C67.9227 54.2297 68.427 56.4547 68.427 59.184C68.427 63.5153 66.7657 66.9567 63.443 69.508C60.1203 72 55.6703 73.246 50.093 73.246Z" fill="black"/>
    </g>
    <defs>
        <clipPath id="clip0_1399_2">
            <rect width="100" height="100" rx="20" fill="black"/>
        </clipPath>
    </defs>
</svg>
